<svg xmlns="http://www.w3.org/2000/svg" style="display:none">
  <defs>
    <symbol id="i-medical" viewBox="0 0 24 24" fill="none" stroke="currentColor" stroke-width="1.7" stroke-linecap="round" stroke-linejoin="round">
      <path d="M12 3l7 2.6v4.9c0 4.6-2.9 7.9-7 9.5-4.1-1.6-7-4.9-7-9.5V5.6L12 3z"/>
      <path d="M12 8.6v5.8M9.1 11.5h5.8"/>
    </symbol>
    <symbol id="i-pharmacy" viewBox="0 0 24 24" fill="none" stroke="currentColor" stroke-width="1.7" stroke-linecap="round" stroke-linejoin="round">
      <rect x="3.2" y="8.6" width="17.6" height="6.8" rx="3.4" transform="rotate(-32 12 12)"/>
      <path d="M9.2 7.3l5.6 9.4"/>
    </symbol>
    <symbol id="i-dental" viewBox="0 0 24 24" fill="none" stroke="currentColor" stroke-width="1.7" stroke-linecap="round" stroke-linejoin="round">
      <path d="M8 3.8c-2.6 0-4.4 2-4.4 4.6 0 3.7 1.7 6 2.5 9.6.3 1.3 2 1.3 2.3 0l.9-3.4c.4-1.4 2.1-1.4 2.5 0l.9 3.4c.3 1.3 2 1.3 2.3 0 .8-3.6 2.5-5.9 2.5-9.6 0-2.6-1.8-4.6-4.4-4.6-1.3 0-2 .6-2.6.6s-1.2-.6-2.5-.6z"/>
    </symbol>
    <symbol id="i-vision" viewBox="0 0 24 24" fill="none" stroke="currentColor" stroke-width="1.7" stroke-linecap="round" stroke-linejoin="round">
      <path d="M2.6 12S6.2 5.9 12 5.9 21.4 12 21.4 12 17.8 18.1 12 18.1 2.6 12 2.6 12z"/>
      <circle cx="12" cy="12" r="2.7"/>
    </symbol>
    <symbol id="i-umbrella" viewBox="0 0 24 24" fill="none" stroke="currentColor" stroke-width="1.7" stroke-linecap="round" stroke-linejoin="round">
      <path d="M12 3.2c-5.2 0-9.2 3.9-9.2 8.6h18.4c0-4.7-4-8.6-9.2-8.6z"/>
      <path d="M12 11.8v6.4c0 1.4 1.1 2.6 2.5 2.6"/>
      <path d="M12 3.2V2.2"/>
    </symbol>
    <symbol id="i-enroll" viewBox="0 0 24 24" fill="none" stroke="currentColor" stroke-width="1.7" stroke-linecap="round" stroke-linejoin="round">
      <rect x="4.8" y="4.2" width="14.4" height="17" rx="2.4"/>
      <path d="M9.2 2.8h5.6v3H9.2z"/>
      <path d="M8.8 13.4l2.3 2.3 4.3-4.5"/>
    </symbol>
    <symbol id="i-app" viewBox="0 0 24 24" fill="none" stroke="currentColor" stroke-width="1.7" stroke-linecap="round" stroke-linejoin="round">
      <rect x="6.8" y="2.6" width="10.4" height="18.8" rx="2.8"/>
      <path d="M10.6 5.4h2.8"/>
      <path d="M12 15.6l-2-1.9c-1.3-1.3-.4-3.4 1.2-3.4.5 0 .8.2.8.2s.3-.2.8-.2c1.6 0 2.5 2.1 1.2 3.4l-2 1.9z"/>
    </symbol>
    <symbol id="i-card" viewBox="0 0 24 24" fill="none" stroke="currentColor" stroke-width="1.7" stroke-linecap="round" stroke-linejoin="round">
      <rect x="2.6" y="5.4" width="18.8" height="13.2" rx="2.4"/>
      <path d="M2.6 9.6h18.8"/>
      <path d="M6.2 14.6h4.2"/>
    </symbol>
    <symbol id="i-billing" viewBox="0 0 24 24" fill="none" stroke="currentColor" stroke-width="1.7" stroke-linecap="round" stroke-linejoin="round">
      <rect x="5.4" y="2.8" width="13.2" height="18.4" rx="2.2"/>
      <path d="M9 8h6M9 12h6M9 16h3.4"/>
    </symbol>
    <symbol id="i-cobra" viewBox="0 0 24 24" fill="none" stroke="currentColor" stroke-width="1.7" stroke-linecap="round" stroke-linejoin="round">
      <path d="M3 7.4V6.2C3 5.1 3.9 4.2 5 4.2h4l2 2.4h8c1.1 0 2 .9 2 2V18c0 1.1-.9 2-2 2H5c-1.1 0-2-.9-2-2V7.4z"/>
      <path d="M12 16.4v-4.6M9.9 13.9l2.1-2.1 2.1 2.1"/>
    </symbol>
    <symbol id="i-renew" viewBox="0 0 24 24" fill="none" stroke="currentColor" stroke-width="1.7" stroke-linecap="round" stroke-linejoin="round">
      <path d="M20 12a8 8 0 1 1-2.3-5.6"/>
      <path d="M20.4 3.6v4.5h-4.5"/>
    </symbol>
    <symbol id="i-service" viewBox="0 0 24 24" fill="none" stroke="currentColor" stroke-width="1.7" stroke-linecap="round" stroke-linejoin="round">
      <path d="M4.2 13.2v-1.4a7.8 7.8 0 0 1 15.6 0v1.4"/>
      <rect x="3" y="12.6" width="3.8" height="6" rx="1.7"/>
      <rect x="17.2" y="12.6" width="3.8" height="6" rx="1.7"/>
      <path d="M19.1 18.6v.6c0 1.6-2.4 2.4-4.8 2.4"/>
    </symbol>
    <symbol id="i-network" viewBox="0 0 24 24" fill="none" stroke="currentColor" stroke-width="1.7" stroke-linecap="round" stroke-linejoin="round">
      <circle cx="12" cy="12" r="2.7"/>
      <circle cx="4.6" cy="5.2" r="1.9"/><circle cx="19.4" cy="5.2" r="1.9"/>
      <circle cx="4.6" cy="18.8" r="1.9"/><circle cx="19.4" cy="18.8" r="1.9"/>
      <path d="M6.2 6.6l3.7 3.4M17.8 6.6l-3.7 3.4M6.2 17.4l3.7-3.4M17.8 17.4l-3.7-3.4"/>
    </symbol>
    <symbol id="i-employer" viewBox="0 0 24 24" fill="none" stroke="currentColor" stroke-width="1.7" stroke-linecap="round" stroke-linejoin="round">
      <rect x="5" y="3.6" width="14" height="16.8" rx="1.6"/>
      <path d="M9 7.6h1.6M13.4 7.6H15M9 11.2h1.6M13.4 11.2H15M9 14.8h1.6M13.4 14.8H15"/>
      <path d="M10.4 20.4v-2.8h3.2v2.8"/>
    </symbol>
    <symbol id="i-members" viewBox="0 0 24 24" fill="none" stroke="currentColor" stroke-width="1.7" stroke-linecap="round" stroke-linejoin="round">
      <circle cx="9" cy="8.4" r="3.1"/>
      <path d="M3.4 19.2c0-3.1 2.5-5.1 5.6-5.1s5.6 2 5.6 5.1"/>
      <circle cx="16.9" cy="9.4" r="2.4"/>
      <path d="M15.9 14.3c2.8.3 4.7 2.1 4.7 4.5"/>
    </symbol>
    <symbol id="i-broker" viewBox="0 0 24 24" fill="none" stroke="currentColor" stroke-width="1.7" stroke-linecap="round" stroke-linejoin="round">
      <rect x="3.4" y="7.4" width="17.2" height="12.2" rx="2.2"/>
      <path d="M9 7.4V5.9c0-1.1.9-2 2-2h2c1.1 0 2 .9 2 2v1.5"/>
      <path d="M3.4 12.4h17.2"/>
      <path d="M10.8 12.4v1.8h2.4v-1.8"/>
    </symbol>
    <symbol id="i-quote" viewBox="0 0 24 24" fill="none" stroke="currentColor" stroke-width="1.7" stroke-linecap="round" stroke-linejoin="round">
      <rect x="5.4" y="2.8" width="13.2" height="18.4" rx="2.2"/>
      <path d="M12 7.4v9.2"/>
      <path d="M14.2 9.4c0-1-1-1.7-2.2-1.7s-2.2.7-2.2 1.6c0 2.3 4.4 1.3 4.4 3.6 0 1-1 1.6-2.2 1.6s-2.2-.7-2.2-1.7"/>
    </symbol>
    <symbol id="i-edi" viewBox="0 0 24 24" fill="none" stroke="currentColor" stroke-width="1.7" stroke-linecap="round" stroke-linejoin="round">
      <path d="M4 8.4h13.6l-3-3M20 15.6H6.4l3 3"/>
    </symbol>
    <symbol id="i-trophy" viewBox="0 0 24 24" fill="none" stroke="currentColor" stroke-width="1.7" stroke-linecap="round" stroke-linejoin="round">
      <path d="M7.6 4h8.8v5.2a4.4 4.4 0 0 1-8.8 0V4z"/>
      <path d="M7.6 5.6H4.8a0 0 0 0 0 0 0c0 2.6 1.2 4.2 2.9 4.6M16.4 5.6h2.8c0 2.6-1.2 4.2-2.9 4.6"/>
      <path d="M12 13.6v3M8.8 20h6.4M10 16.6h4l.7 3.4H9.3l.7-3.4z"/>
    </symbol>
  </defs>
</svg>
