<svg xmlns="http://www.w3.org/2000/svg" style="display:none">
  <defs>
    <symbol id="spot-health" viewBox="0 0 96 96">
      <circle cx="48" cy="48" r="40" fill="#E8F3ED"/>
      <path d="M14 58h16l6-12 8 22 8-30 6 20h24" fill="none" stroke="#7FD6A8" stroke-width="3" stroke-linecap="round" stroke-linejoin="round"/>
      <path d="M48 22l20 7v13c0 13-8.4 22.5-20 27-11.6-4.5-20-14-20-27V29l20-7z" fill="#ffffff" stroke="#0F2A47" stroke-width="3.5" stroke-linejoin="round"/>
      <path d="M48 36v20M38 46h20" stroke="#1F8A5B" stroke-width="4.5" stroke-linecap="round"/>
    </symbol>
    <symbol id="spot-pharmacy" viewBox="0 0 96 96">
      <circle cx="48" cy="48" r="40" fill="#E8F3ED"/>
      <rect x="26" y="34" width="26" height="40" rx="6" fill="#ffffff" stroke="#0F2A47" stroke-width="3.5"/>
      <rect x="23" y="24" width="32" height="10" rx="4" fill="#1F8A5B" stroke="#0F2A47" stroke-width="3.5"/>
      <path d="M32 48h14M39 41v14" stroke="#1F8A5B" stroke-width="3.5" stroke-linecap="round"/>
      <rect x="52" y="52" width="26" height="13" rx="6.5" transform="rotate(-32 65 58)" fill="#ffffff" stroke="#0F2A47" stroke-width="3.5"/>
      <path d="M60.5 62.5l11-7" stroke="#0F2A47" stroke-width="3.5"/>
      <path d="M66.2 58.9l5.4-3.4a6.5 6.5 0 0 0-6.9-11l-5.4 3.4z" fill="#7FD6A8"/>
    </symbol>
    <symbol id="spot-dental" viewBox="0 0 96 96">
      <circle cx="48" cy="48" r="40" fill="#E8F3ED"/>
      <path d="M31 26c-6.5 0-11 5-11 11.5 0 9.3 4.3 15 6.3 24 .7 3.2 5 3.2 5.7 0l2.3-8.5c1-3.5 5.2-3.5 6.2 0l2.3 8.5c.7 3.2 5 3.2 5.7 0 2-9 6.3-14.7 6.3-24C55 31 50.5 26 44 26c-3.2 0-5 1.5-6.5 1.5S34.2 26 31 26z" fill="#ffffff" stroke="#0F2A47" stroke-width="3.5" stroke-linejoin="round"/>
      <path d="M44 60c4-6.5 12-10.5 19-10.5S78 53.5 82 60c-4 6.5-12 10.5-19 10.5S48 66.5 44 60z" fill="#ffffff" stroke="#0F2A47" stroke-width="3.5" stroke-linejoin="round"/>
      <circle cx="63" cy="60" r="5.5" fill="#1F8A5B"/>
      <circle cx="65" cy="58" r="1.8" fill="#ffffff"/>
    </symbol>
    <symbol id="spot-supplemental" viewBox="0 0 96 96">
      <circle cx="48" cy="48" r="40" fill="#E8F3ED"/>
      <path d="M20 48c0-15.5 12.5-28 28-28s28 12.5 28 28c-4.5-4-9.5-4-14 0-4.5-4-9.5-4-14 0-4.5-4-9.5-4-14 0-4.5-4-9.5-4-14 0z" fill="#1F8A5B" stroke="#0F2A47" stroke-width="3.5" stroke-linejoin="round"/>
      <path d="M48 48v20a7 7 0 0 1-14 0" fill="none" stroke="#0F2A47" stroke-width="3.5" stroke-linecap="round"/>
      <circle cx="62" cy="62" r="6" fill="#ffffff" stroke="#0F2A47" stroke-width="3.5"/>
      <path d="M53 80c1.5-6 4.8-9 9-9s7.5 3 9 9" fill="none" stroke="#0F2A47" stroke-width="3.5" stroke-linecap="round"/>
    </symbol>
    <symbol id="spot-enroll" viewBox="0 0 96 96">
      <circle cx="48" cy="48" r="40" fill="#E8F3ED"/>
      <rect x="22" y="24" width="52" height="36" rx="5" fill="#ffffff" stroke="#0F2A47" stroke-width="3.5"/>
      <path d="M16 66h64l-5 8H21l-5-8z" fill="#1F8A5B" stroke="#0F2A47" stroke-width="3.5" stroke-linejoin="round"/>
      <path d="M31 36l3 3 5.5-6" fill="none" stroke="#1F8A5B" stroke-width="3.5" stroke-linecap="round" stroke-linejoin="round"/>
      <path d="M45 36h20" stroke="#7FD6A8" stroke-width="3.5" stroke-linecap="round"/>
      <path d="M31 48l3 3 5.5-6" fill="none" stroke="#1F8A5B" stroke-width="3.5" stroke-linecap="round" stroke-linejoin="round"/>
      <path d="M45 48h14" stroke="#7FD6A8" stroke-width="3.5" stroke-linecap="round"/>
    </symbol>
    <symbol id="spot-app" viewBox="0 0 96 96">
      <circle cx="48" cy="48" r="40" fill="#E8F3ED"/>
      <rect x="30" y="18" width="30" height="56" rx="8" fill="#ffffff" stroke="#0F2A47" stroke-width="3.5"/>
      <path d="M40 24h10" stroke="#0F2A47" stroke-width="3.5" stroke-linecap="round"/>
      <rect x="36" y="34" width="18" height="12" rx="4" fill="#E8F3ED"/>
      <rect x="36" y="50" width="18" height="12" rx="4" fill="#E8F3ED"/>
      <path d="M58 40c9-2 16 3 16 10 0 4-2 7-5.5 8.5L70 66l-8-5c-5.5 0-10-3-11-7" fill="#1F8A5B" stroke="#0F2A47" stroke-width="3.5" stroke-linejoin="round"/>
      <path d="M62 49.5c1.6-2.6 5-2.4 6.2-.3 1 1.8.3 3.8-2.7 6-3.4-1.4-4.6-3.4-3.5-5.7z" fill="#ffffff"/>
    </symbol>
    <symbol id="spot-card" viewBox="0 0 96 96">
      <circle cx="48" cy="48" r="40" fill="#E8F3ED"/>
      <rect x="18" y="32" width="52" height="34" rx="6" fill="#ffffff" stroke="#0F2A47" stroke-width="3.5"/>
      <rect x="18" y="40" width="52" height="8" fill="#0F2A47"/>
      <rect x="25" y="54" width="14" height="6" rx="2" fill="#7FD6A8"/>
      <path d="M74 38c3.5 3 5.5 7 5.5 11.5S77.5 58 74 61M69 43c2.2 1.8 3.5 4.2 3.5 6.5S71.2 54.2 69 56" fill="none" stroke="#1F8A5B" stroke-width="3.5" stroke-linecap="round"/>
      <circle cx="64" cy="66" r="10" fill="#1F8A5B" stroke="#0F2A47" stroke-width="3.5"/>
      <path d="M64 61.5v9M61 64l3-3 3 3" fill="none" stroke="#ffffff" stroke-width="3" stroke-linecap="round" stroke-linejoin="round"/>
    </symbol>
    <symbol id="spot-billing" viewBox="0 0 96 96">
      <circle cx="48" cy="48" r="40" fill="#E8F3ED"/>
      <path d="M28 18h32l8 8v52H28V18z" fill="#ffffff" stroke="#0F2A47" stroke-width="3.5" stroke-linejoin="round"/>
      <path d="M60 18v8h8" fill="none" stroke="#0F2A47" stroke-width="3.5" stroke-linejoin="round"/>
      <path d="M35 34h18M35 42h26M35 50h26M35 58h14" stroke="#7FD6A8" stroke-width="3.5" stroke-linecap="round"/>
      <circle cx="64" cy="64" r="12" fill="#1F8A5B" stroke="#0F2A47" stroke-width="3.5"/>
      <path d="M58.5 64l4 4 7-8" fill="none" stroke="#ffffff" stroke-width="3.5" stroke-linecap="round" stroke-linejoin="round"/>
    </symbol>
    <symbol id="spot-cobra" viewBox="0 0 96 96">
      <circle cx="48" cy="48" r="40" fill="#E8F3ED"/>
      <path d="M20 30a4 4 0 0 1 4-4h16l6 7h26a4 4 0 0 1 4 4v29a4 4 0 0 1-4 4H24a4 4 0 0 1-4-4V30z" fill="#ffffff" stroke="#0F2A47" stroke-width="3.5" stroke-linejoin="round"/>
      <path d="M20 42h56" stroke="#0F2A47" stroke-width="3.5"/>
      <path d="M62 48l12 4v7c0 7.5-4.9 13-12 15.5C54.9 72 50 66.5 50 59v-7l12-4z" fill="#1F8A5B" stroke="#0F2A47" stroke-width="3.5" stroke-linejoin="round"/>
      <path d="M57 59l3.5 3.5 6.5-7" fill="none" stroke="#ffffff" stroke-width="3" stroke-linecap="round" stroke-linejoin="round"/>
    </symbol>
    <symbol id="spot-renew" viewBox="0 0 96 96">
      <circle cx="48" cy="48" r="40" fill="#E8F3ED"/>
      <rect x="30" y="30" width="36" height="34" rx="5" fill="#ffffff" stroke="#0F2A47" stroke-width="3.5"/>
      <path d="M30 40h36" stroke="#0F2A47" stroke-width="3.5"/>
      <path d="M39 26v8M57 26v8" stroke="#0F2A47" stroke-width="3.5" stroke-linecap="round"/>
      <path d="M40 50l4.5 4.5 9-10" fill="none" stroke="#1F8A5B" stroke-width="3.5" stroke-linecap="round" stroke-linejoin="round"/>
      <path d="M76 48a28 28 0 0 1-9 20M20 48a28 28 0 0 1 9-20" fill="none" stroke="#1F8A5B" stroke-width="3.5" stroke-linecap="round" stroke-dasharray="1 8"/>
      <path d="M67 74l-1-7 7-1M29 22l1 7-7 1" fill="none" stroke="#1F8A5B" stroke-width="3.5" stroke-linecap="round" stroke-linejoin="round"/>
    </symbol>
    <symbol id="spot-service" viewBox="0 0 96 96">
      <circle cx="48" cy="48" r="40" fill="#E8F3ED"/>
      <path d="M28 52v-6a20 20 0 0 1 40 0v6" fill="none" stroke="#0F2A47" stroke-width="3.5" stroke-linecap="round"/>
      <rect x="22" y="50" width="12" height="18" rx="6" fill="#1F8A5B" stroke="#0F2A47" stroke-width="3.5"/>
      <rect x="62" y="50" width="12" height="18" rx="6" fill="#1F8A5B" stroke="#0F2A47" stroke-width="3.5"/>
      <path d="M68 68v2a8 8 0 0 1-8 8h-6" fill="none" stroke="#0F2A47" stroke-width="3.5" stroke-linecap="round"/>
      <circle cx="51" cy="78" r="4" fill="#7FD6A8" stroke="#0F2A47" stroke-width="3"/>
    </symbol>
  </defs>
</svg>
