<svg xmlns="http://www.w3.org/2000/svg" viewBox="0 0 4064 1056">
  <title>BenSync</title>
  <g>
    <path transform="translate(6.54 784.74) scale(0.93843)" fill="#FFFFFF" d="M382 5L90 5L90-735L352-735Q476-735 540.5000-683Q605-631 605-534L605-520Q605-452 573-412Q556-390 532-376Q576-358 603-324Q635-283 635-214L635-200Q635-135 606.5000-89.5000Q578-44 521.5000-19.5000Q465 5 382 5M392-313L229-313L229-109L392-109Q442-109 468-136.5000Q494-164 494-212Q494-260 468-286.5000Q442-313 392-313M365-621L229-621L229-423L365-423Q416-423 440-450Q464-477 464-522Q464-567 440-594Q416-621 365-621"/>
    <path transform="translate(626.65 784.40) scale(0.93843)" fill="#FFFFFF" d="M322 19Q252 19 199.5000-5Q147-29 112.5000-69.5000Q78-110 60.5000-160Q43-210 43-262L43-281Q43-335 60.5000-385.5000Q78-436 112.5000-475.5000Q147-515 198-538.5000Q249-562 316-562Q404-562 463.5000-523.5000Q523-485 553-422.5000Q583-360 583-288L583-238L175-238Q178-207 189-181Q205-141 238-118.5000Q271-96 322-96Q373-96 405-116.5000Q437-137 446-167L574-167Q562-111 528-69Q494-27 441.5000-4Q389 19 322 19M177-323L450-323Q447-349 438-370Q423-407 392.5000-427Q362-447 316-447Q270-447 238-426Q206-405 190-366Q181-346 177-323"/>
    <path transform="translate(1165.86 784.52) scale(0.93843)" fill="#FFFFFF" d="M218 0L79 0L79-543L189-543L189-409Q194-430 201-449Q223-504 266.5000-532Q310-560 375-560L381-560Q478-560 528-497.5000Q578-435 578-311L578 0L439 0L439-323Q439-373 410.5000-404Q382-435 332-435Q281-435 249.5000-403.5000Q218-372 218-319"/>
  </g>
  <g>
    <path transform="translate(1762.40 784.76) scale(0.93843)" fill="#FFFFFF" d="M339 19Q242 19 175.5000-12Q109-43 74-97.5000Q39-152 39-221L178-221Q178-192 194-164.5000Q210-137 245.5000-120Q281-103 339-103Q391-103 426-118Q461-133 478-157.5000Q495-182 495-213Q495-252 462-275.5000Q429-299 360-305L296-310Q191-319 128.5000-375.5000Q66-432 66-525Q66-595 99-645.5000Q132-696 191.5000-723.5000Q251-751 331-751Q414-751 474-722Q534-693 567-640.5000Q600-588 600-517L461-517Q461-547 446.5000-572.5000Q432-598 403.5000-613.5000Q375-629 331-629Q289-629 261-615Q233-601 219-577Q205-553 205-525Q205-491 230-465.5000Q255-440 309-436L373-430Q451-424 510-397Q569-370 601.5000-324Q634-278 634-213Q634-144 598-91.5000Q562-39 495.5000-10Q429 19 339 19"/>
    <path transform="translate(2367.55 784.56) scale(0.93843)" fill="#FFFFFF" d="M152 214L63 214L63 95L165 95Q194 95 213.5000 87.5000Q233 80 246 63.5000Q259 47 266 18L274-12L185-12L9-543L149-543L281-122L302-122L412-543L545-543L384 48Q368 109 339 145.5000Q310 182 264.5000 198Q219 214 152 214"/>
    <path transform="translate(2861.86 784.52) scale(0.93843)" fill="#FFFFFF" d="M218 0L79 0L79-543L189-543L189-409Q194-430 201-449Q223-504 266.5000-532Q310-560 375-560L381-560Q478-560 528-497.5000Q578-435 578-311L578 0L439 0L439-323Q439-373 410.5000-404Q382-435 332-435Q281-435 249.5000-403.5000Q218-372 218-319"/>
    <path transform="translate(3458.65 784.40) scale(0.93843)" fill="#FFFFFF" d="M320 19Q249 19 197.5000-5Q146-29 111.5000-69Q77-109 60-159Q43-209 43-261L43-280Q43-335 60.5000-385.5000Q78-436 113-475.5000Q148-515 199.5000-538.5000Q251-562 319-562Q390-562 446-534.5000Q502-507 535.5000-458Q569-409 573-344L438-344Q433-386 402.5000-414Q372-442 319-442Q273-442 242.5000-420Q212-398 197-359.5000Q182-321 182-271Q182-223 196.5000-184Q211-145 241.5000-123Q272-101 320-101Q356-101 382-114Q408-127 423.5000-150Q439-173 443-202L578-202Q574-136 539.5000-86.5000Q505-37 448.5000-9Q392 19 320 19"/>
  </g>
</svg>
