<svg xmlns="http://www.w3.org/2000/svg" viewBox="0 0 1024 1024">
  <title>BenSync monogram</title>
  <defs>
    <clipPath id="top"><rect x="0" y="0" width="1024" height="512"/></clipPath>
    <clipPath id="bottom"><rect x="0" y="512" width="1024" height="512"/></clipPath>
  </defs>
  <g clip-path="url(#top)"><path transform="translate(186.95 859.54) scale(0.94495)" fill="#0F2A47" d="M382 5L90 5L90-735L352-735Q476-735 540.5000-683Q605-631 605-534L605-520Q605-452 573-412Q556-390 532-376Q576-358 603-324Q635-283 635-214L635-200Q635-135 606.5000-89.5000Q578-44 521.5000-19.5000Q465 5 382 5M392-313L229-313L229-109L392-109Q442-109 468-136.5000Q494-164 494-212Q494-260 468-286.5000Q442-313 392-313M365-621L229-621L229-423L365-423Q416-423 440-450Q464-477 464-522Q464-567 440-594Q416-621 365-621"/></g>
  <g clip-path="url(#bottom)"><path transform="translate(186.95 859.54) scale(0.94495)" fill="#1F8A5B" d="M382 5L90 5L90-735L352-735Q476-735 540.5000-683Q605-631 605-534L605-520Q605-452 573-412Q556-390 532-376Q576-358 603-324Q635-283 635-214L635-200Q635-135 606.5000-89.5000Q578-44 521.5000-19.5000Q465 5 382 5M392-313L229-313L229-109L392-109Q442-109 468-136.5000Q494-164 494-212Q494-260 468-286.5000Q442-313 392-313M365-621L229-621L229-423L365-423Q416-423 440-450Q464-477 464-522Q464-567 440-594Q416-621 365-621"/></g>
</svg>
